<?xml version="1.0" standalone="no"?><!DOCTYPE svg PUBLIC "-//W3C//DTD SVG 1.1//EN" "http://www.w3.org/Graphics/SVG/1.1/DTD/svg11.dtd"><svg t="1571579727628" class="icon" viewBox="0 0 1024 1024" version="1.1" xmlns="http://www.w3.org/2000/svg" p-id="1130" xmlns:xlink="http://www.w3.org/1999/xlink" width="200" height="200"><defs><style type="text/css"></style></defs><path d="M985.6 430.933333c-10.666667 12.8-29.866667 17.066667-42.666667 6.4l0 0c-117.333333-93.866667-266.666667-149.333333-428.8-149.333333s-311.466667 55.466667-428.8 149.333333l0 0c-12.8 10.666667-32 8.533333-42.666667-6.4-10.666667-14.933333-8.533333-34.133333 6.4-44.8 2.133333 0 2.133333-2.133333 4.266667-2.133333 128-100.266667 290.133333-160 465.066667-160 174.933333 0 334.933333 59.733333 465.066667 160 2.133333 0 2.133333 0 4.266667 2.133333C994.133333 396.8 996.266667 418.133333 985.6 430.933333zM512 416c104.533333 0 189.866667 85.333333 189.866667 192s-85.333333 192-189.866667 192c-104.533333 0-189.866667-85.333333-189.866667-192S407.466667 416 512 416z" p-id="1131"></path></svg>